<svg width="26" height="26" viewBox="0 0 26 26" fill="none" xmlns="http://www.w3.org/2000/svg">
<path d="M13 7.58333C13 6.43406 12.5434 5.33186 11.7308 4.5192C10.9181 3.70655 9.8159 3.25 8.66663 3.25H2.16663V19.5H9.74996C10.6119 19.5 11.4386 19.8424 12.0481 20.4519C12.6575 21.0614 13 21.888 13 22.75M13 7.58333V22.75M13 7.58333C13 6.43406 13.4565 5.33186 14.2692 4.5192C15.0818 3.70655 16.184 3.25 17.3333 3.25H23.8333V19.5H16.25C15.388 19.5 14.5614 19.8424 13.9519 20.4519C13.3424 21.0614 13 21.888 13 22.75" stroke="white" stroke-width="4" stroke-linecap="round" stroke-linejoin="round"/>
</svg>
